<svg version="1.1" xmlns="http://www.w3.org/2000/svg" xmlns:xlink="http://www.w3.org/1999/xlink" x="0px" y="0px" viewBox="0 0 1000 1000" enable-background="new 0 0 1000 1000" xml:space="preserve">
<metadata> Svg Vector Icons : http://www.onlinewebfonts.com/icon </metadata>
<g><path d="M559.1,641.6c0,21-11.9,38.6-28.7,48.6v123.7H473V690.2c-16.9-10-28.7-27.6-28.7-48.6c0-31.7,25.7-57.4,57.4-57.4C533.3,584.2,559.1,609.8,559.1,641.6z M872.9,497.4v406.5c0,47.5-38.6,86.1-86.1,86.1H213.2c-47.5,0-86.1-38.6-86.1-86.1V497.4c0-47.5,38.6-86.1,86.1-86.1h1.4V297.1C214.6,138.8,343.4,10,501.7,10C660,10,788.8,138.8,788.8,297.1v114.4C835.3,412.5,872.9,450.6,872.9,497.4L872.9,497.4z M272,411.2h459.3V297.1c0-126.7-103-229.7-229.7-229.7C375,67.4,272,170.4,272,297.1V411.2L272,411.2z M815.5,497.4c0-15.2-11.9-27.2-26.7-28.3v0.2H214.6v-0.6h-1.4c-15.8,0-28.7,12.9-28.7,28.7v406.5c0,15.8,12.9,28.7,28.7,28.7h573.5c15.8,0,28.7-12.9,28.7-28.7V497.4z"/></g>
</svg>
