<svg version="1.1" xmlns="http://www.w3.org/2000/svg" xmlns:xlink="http://www.w3.org/1999/xlink" x="0px" y="0px" viewBox="0 0 1000 1000" enable-background="new 0 0 1000 1000" xml:space="preserve">
<metadata> Svg Vector Icons : http://www.onlinewebfonts.com/icon </metadata>
<g><path d="M422.3,759C229.6,759,73.4,605.5,73.4,415.9S229.6,72.5,422.3,72.5s348.9,153.8,348.9,343.4S615,759,422.3,759L422.3,759z M980.7,936.7l-253-249c66.2-72,106.9-167,106.9-271.7C834.6,191.7,650,10,422.3,10S10,191.7,10,415.9c0,223.9,184.6,405.6,412.3,405.6c98.4,0,188.6-34,259.5-90.7l254,250c12.4,12.3,32.5,12.3,44.8,0C993.1,968.8,993.1,948.9,980.7,936.7L980.7,936.7z"/></g>
</svg>
